# xmcd
# 
# Track frame offsets:
#     183
#     9885
#     24283
#     34993
#     44958
#     58075
#     72128
#     86230
#     98325
#     109743
#     143305
#     155680
#     183875
#     194583
#     204595
#     217350
#     229310
#     238685
#     248040
#     259685
#     269910
# 
# Disc length: 3753
# 
# Revision: 3
# Processed by: cddbd v1.5.2PL0 Copyright (c) Steve Scherf et al.
# Submitted via: BonkEnc v1.0.8
# 
DISCID=340ea715
DTITLE=Buddy Guy - I Got My Eyes On You
DYEAR=1991
DGENRE=Blues
TTITLE0=Slop Around
TTITLE1=Broken Hearted Blues
TTITLE2=I Got My Eyes On You
TTITLE3=First Time I Met the Blues
TTITLE4=Let Me Love You, Baby
TTITLE5=I Got a Strange Feeling
TTITLE6=Hully Gully
TTITLE7=Ten Years Ago
TTITLE8=Watch Yourself
TTITLE9=Stone Crazy
TTITLE10=Skippin'
TTITLE11=I Found a True Love
TTITLE12=Hard But It's Fair
TTITLE13=Baby (Baby, Baby, Baby)
TTITLE14=When My Left Eye Jumps
TTITLE15=That's It
TTITLE16=The Treasure Untold
TTITLE17=American Bandstand
TTITLE18=No Lie
TTITLE19=Hundred $ Bill
TTITLE20=My Love is Real
EXTD=Vogue VG651 600176
EXTT0=
EXTT1=
EXTT2=
EXTT3=
EXTT4=
EXTT5=
EXTT6=
EXTT7=
EXTT8=
EXTT9=
EXTT10=
EXTT11=
EXTT12=
EXTT13=
EXTT14=
EXTT15=
EXTT16=
EXTT17=
EXTT18=
EXTT19=
EXTT20=
PLAYORDER=
